<svg id="Capa_1" enable-background="new 0 0 512 512" height="512" viewBox="0 0 512 512" width="512" xmlns="http://www.w3.org/2000/svg"><g><path d="m436.983 88.25h-361.966c-41.365 0-75.017 33.653-75.017 75.017 0 24.582 11.886 46.44 30.212 60.13v-34.911c0-24.813 20.186-45 45-45h361.788c24.814 0 45 20.187 45 45v34.748c18.204-13.7 30-35.481 30-59.967 0-41.364-33.652-75.017-75.017-75.017z"/><g><path d="m424.977 173.487h-337.742l168.871 139.878z"/><path d="m60.212 190.058v217.121l131.062-108.561z"/><path d="m297.424 318.096-31.749 26.298c-2.775 2.299-6.172 3.448-9.568 3.448s-6.793-1.149-9.568-3.448l-31.75-26.299-127.553 105.655h337.74z"/><path d="m320.939 298.618 131.061 108.561v-217.121z"/></g></g></svg>